PathFileType	4	(x/y/z)	S01_P20_T21
DataRate	CameraRate	NumFrames	NumMarkers	Units	OrigDataRate	OrigDataStartFrame	OrigNumFrames
240	240	6	51	mm	240	1	381
Frame#	Time	Sternum			R.Acromium			L.Acromium			Top.Head			R.ASIS			L.ASIS			R.PSIS			L.PSIS			R.Great.Tro			L.Great.Tro			R.Iliac.Crest			L.Iliac.Crest			V.Sacral			R.Thigh.Upper.Post			R.Thigh.Lower.Ant			R.Thigh.Lower.Post			R.Thigh.Upper.Ant			R.Knee.Lat			R.Knee.Med			R.Shank.Upper.Post			R.Shank.Lower.Ant			R.Shank.Lower.Post			R.Shank.Upper.Ant			R.Ankle.Lat			R.Ankle.Med			R.Heel.Upper			R.Heel.Med			R.Heel.Lat			R.Toe.Lat			R.Toe.Med			R.Toe.Tip			L.Thigh.Upper.Post			L.Thigh.Lower.Ant			L.Thigh.Lower.Post			L.Thigh.Upper.Ant			L.Knee.Lat			L.Knee.Med			L.Shank.Upper.Post			L.Shank.Lower.Ant			L.Shank.Lower.Post			L.Shank.Upper.Ant			L.Ankle.Lat			L.Ankle.Med			L.Heel.Upper			L.Heel.Med			L.Heel.Lat			L.Toe.Lat			L.Toe.Med			L.Toe.Tip			Cervical.Spine			Back			
		X1	Y1	Z1	X2	Y2	Z2	X3	Y3	Z3	X4	Y4	Z4	X5	Y5	Z5	X6	Y6	Z6	X7	Y7	Z7	X8	Y8	Z8	X9	Y9	Z9	X10	Y10	Z10	X11	Y11	Z11	X12	Y12	Z12	X13	Y13	Z13	X14	Y14	Z14	X15	Y15	Z15	X16	Y16	Z16	X17	Y17	Z17	X18	Y18	Z18	X19	Y19	Z19	X20	Y20	Z20	X21	Y21	Z21	X22	Y22	Z22	X23	Y23	Z23	X24	Y24	Z24	X25	Y25	Z25	X26	Y26	Z26	X27	Y27	Z27	X28	Y28	Z28	X29	Y29	Z29	X30	Y30	Z30	X31	Y31	Z31	X32	Y32	Z32	X33	Y33	Z33	X34	Y34	Z34	X35	Y35	Z35	X36	Y36	Z36	X37	Y37	Z37	X38	Y38	Z38	X39	Y39	Z39	X40	Y40	Z40	X41	Y41	Z41	X42	Y42	Z42	X43	Y43	Z43	X44	Y44	Z44	X45	Y45	Z45	X46	Y46	Z46	X47	Y47	Z47	X48	Y48	Z48	X49	Y49	Z49	X50	Y50	Z50	X51	Y51	Z51	

1	0	NaN	NaN	NaN	-1468.2	1514.2	490.17	-1538.3	1546.6	166.51	-1479	1848.2	328.59	NaN	NaN	NaN	NaN	NaN	NaN	-1685.1	1075.6	363.99	-1686.2	1070.2	260.89	-1548.4	965.21	536.44	-1550.6	979.24	108.06	-1522.2	1113.2	523.12	-1560.6	1106.4	118.99	-1699.8	1036.8	310.82	-1618.6	669.37	507.35	NaN	NaN	NaN	-1634.5	583.75	487.74	-1544.5	671.03	505.25	-1623	513.07	480.1	-1618	514.09	336.24	-1732	379.82	497.8	NaN	NaN	NaN	-1762.2	316.28	485.85	-1682.1	346.83	475.32	-1826.1	121.75	449.29	-1790.5	119.15	357.42	-1896.9	95.851	388.24	-1883.7	62.102	362.76	-1893.7	66.465	426.02	-1705.5	42.785	495.83	-1668.7	46.311	373.17	NaN	NaN	NaN	-1477.8	694.02	122.21	-1373.6	656.13	114.66	-1436.7	614.05	140.53	-1424	735.57	97.137	-1355.1	557.58	126.7	NaN	NaN	NaN	-1367.6	414.85	103.88	-1283.1	344.25	123.11	-1346.1	338.8	104.13	-1303.7	418.11	117.94	-1292.8	124.17	132.42	-1267.6	142.65	228.63	-1346.6	68.294	181.17	-1327	48.242	214.16	-1330.1	47.496	151.36	-1132.4	103.27	109.59	-1108.6	120.7	229.2	-1057.3	156.34	175.86	-1592.5	1591.7	346.49	-1687.5	1287.2	361.52
2	0.0041667	NaN	NaN	NaN	-1463.1	1513	489.27	-1532.8	1545.4	165.55	-1473.7	1847.1	327.97	NaN	NaN	NaN	NaN	NaN	NaN	-1679.6	1074.2	362.99	-1680.4	1068.8	259.9	-1543.2	964.36	536.01	-1544.2	977.8	107.6	-1517.3	1112.1	522.6	-1554.5	1104.9	118.27	-1694.2	1035.5	309.85	-1614	668.83	507.09	NaN	NaN	NaN	-1629.7	583.11	487.62	-1539.5	670.31	505	-1618.9	512.55	480.28	-1613.4	513.22	336.26	-1728.8	380.07	497.75	NaN	NaN	NaN	-1759.5	316.75	485.8	-1678.9	346.66	475.3	-1825.4	122.81	449.33	-1789.9	120.12	357.5	-1896.4	97.509	388.25	-1883.4	63.734	362.72	-1893.4	68.012	425.95	-1705.6	42.672	495.86	-1668.5	46.355	373.25	NaN	NaN	NaN	-1471.5	693.03	121.9	-1367.3	655.29	115	-1430.3	613.07	140.22	-1417.7	734.71	97.193	-1349.2	556.38	126.72	NaN	NaN	NaN	-1362.3	413.48	104.03	-1278	342.63	123.38	-1340.9	337.42	104.35	-1298.3	416.62	118.11	-1288.6	122.84	132.71	-1263.2	141.16	228.94	-1342.5	67.326	181.51	-1323	47.214	214.48	-1326.1	46.425	151.72	-1128.3	101.27	109.9	-1104.3	118.73	229.47	-1052.8	154.01	176.06	-1587.2	1590.5	345.49	-1682.2	1286	360.51
3	0.0083333	NaN	NaN	NaN	-1457.9	1511.9	488.33	-1527	1544.1	164.54	-1468.2	1846	327.3	NaN	NaN	NaN	NaN	NaN	NaN	-1673.8	1072.9	361.94	-1674.4	1067.3	258.87	-1537.8	963.46	535.55	-1537.6	976.33	107.12	-1512.2	1111	522.04	-1548.2	1103.4	117.52	-1688.3	1034	308.83	-1609	668.25	506.83	NaN	NaN	NaN	-1624.7	582.42	487.51	-1534.2	669.57	504.75	-1614.4	512.01	480.49	-1608.5	512.29	336.3	-1725.4	380.35	497.72	NaN	NaN	NaN	-1756.6	317.26	485.77	-1675.5	346.5	475.3	-1824.6	123.96	449.4	-1789.1	121.19	357.6	-1895.8	99.32	388.29	-1883.1	65.521	362.68	-1893	69.698	425.9	-1705.8	42.561	495.91	-1668.3	46.395	373.34	NaN	NaN	NaN	-1464.9	692	121.59	-1360.7	654.4	115.35	-1423.8	612.05	139.92	-1411.1	733.81	97.264	-1343.1	555.13	126.75	NaN	NaN	NaN	-1356.8	412.09	104.19	-1272.8	340.93	123.68	-1335.5	335.99	104.59	-1292.7	415.07	118.32	-1284.3	121.49	133.01	-1258.8	139.61	229.27	-1338.4	66.409	181.85	-1319.1	46.219	214.8	-1322.2	45.388	152.07	-1124.1	99.094	110.24	-1100	116.56	229.79	-1048.4	151.42	176.32	-1581.8	1589.4	344.44	-1676.7	1284.8	359.45
4	0.0125	NaN	NaN	NaN	-1452.4	1510.7	487.36	-1521.1	1542.8	163.48	-1462.4	1844.9	326.59	NaN	NaN	NaN	NaN	NaN	NaN	-1667.8	1071.5	360.86	-1668.2	1065.8	257.8	-1532.1	962.54	535.06	-1530.7	974.84	106.61	-1506.9	1109.9	521.45	-1541.7	1101.8	116.73	-1682.2	1032.6	307.78	-1603.8	667.64	506.56	NaN	NaN	NaN	-1619.4	581.7	487.41	-1528.6	668.81	504.5	-1609.8	511.45	480.71	-1603.3	511.32	336.37	-1721.7	380.67	497.71	NaN	NaN	NaN	-1753.4	317.82	485.76	-1671.9	346.34	475.34	-1823.7	125.21	449.48	-1788.4	122.36	357.74	-1895.2	101.29	388.36	-1882.7	67.475	362.65	-1892.5	71.533	425.86	-1706	42.455	495.96	-1668.1	46.429	373.43	NaN	NaN	NaN	-1458.2	690.94	121.28	-1353.9	653.47	115.69	-1417.1	610.99	139.62	-1404.2	732.88	97.351	-1336.7	553.84	126.78	NaN	NaN	NaN	-1351.1	410.68	104.38	-1267.5	339.17	124	-1330	334.55	104.83	-1287	413.47	118.55	-1279.9	120.11	133.29	-1254.3	138.01	229.61	-1334.4	65.565	182.17	-1315.2	45.278	215.1	-1318.4	44.407	152.41	-1120	96.745	110.62	-1095.7	114.19	230.16	-1043.9	148.56	176.64	-1576.2	1588.2	343.33	-1671	1283.5	358.33
5	0.016667	NaN	NaN	NaN	-1446.9	1509.6	486.35	-1515	1541.5	162.38	-1456.5	1843.8	325.83	NaN	NaN	NaN	NaN	NaN	NaN	-1661.7	1070	359.75	-1661.8	1064.3	256.7	-1526.2	961.61	534.54	-1523.7	973.36	106.08	-1501.4	1108.8	520.84	-1534.9	1100.3	115.91	-1675.9	1031.1	306.68	-1598.3	667	506.3	NaN	NaN	NaN	-1613.8	580.95	487.34	-1522.8	668.03	504.26	-1605	510.87	480.97	-1597.8	510.29	336.49	-1717.9	381.02	497.73	NaN	NaN	NaN	-1750.1	318.44	485.79	-1668.2	346.19	475.41	-1822.7	126.58	449.59	-1787.5	123.64	357.91	-1894.5	103.44	388.45	-1882.2	69.61	362.64	-1892	73.528	425.83	-1706.3	42.36	496.01	-1667.9	46.458	373.51	NaN	NaN	NaN	-1451.3	689.86	120.98	-1347	652.51	116.02	-1410.2	609.91	139.34	-1397.3	731.92	97.455	-1330.2	552.53	126.81	NaN	NaN	NaN	-1345.3	409.27	104.58	-1262.1	337.37	124.35	-1324.4	333.1	105.09	-1281.1	411.83	118.81	-1275.7	118.74	133.57	-1250	136.37	229.95	-1330.5	64.818	182.47	-1311.5	44.411	215.38	-1314.7	43.502	152.73	-1116	94.225	111.04	-1091.5	111.6	230.58	-1039.4	145.42	177.02	-1570.5	1587	342.17	-1665.2	1282.2	357.18
6	0.020833	NaN	NaN	NaN	-1441.2	1508.5	485.31	-1508.7	1540.2	161.22	-1450.5	1842.7	325.04	NaN	NaN	NaN	NaN	NaN	NaN	-1655.4	1068.6	358.61	-1655.2	1062.8	255.57	-1520.2	960.65	533.99	-1516.5	971.88	105.54	-1495.8	1107.7	520.21	-1528	1098.7	115.05	-1669.5	1029.6	305.57	-1592.6	666.33	506.05	NaN	NaN	NaN	-1608	580.17	487.28	-1516.8	667.25	504.03	-1600.1	510.27	481.24	-1592.1	509.23	336.65	-1713.8	381.41	497.79	NaN	NaN	NaN	-1746.6	319.11	485.85	-1664.2	346.05	475.53	-1821.7	128.05	449.74	-1786.6	125.05	358.12	-1893.7	105.78	388.57	-1881.6	71.942	362.64	-1891.4	75.697	425.82	-1706.5	42.279	496.07	-1667.7	46.482	373.6	NaN	NaN	NaN	-1444.2	688.77	120.7	-1340	651.51	116.34	-1403.2	608.8	139.06	-1390.2	730.94	97.574	-1323.6	551.2	126.86	NaN	NaN	NaN	-1339.4	407.88	104.8	-1256.7	335.54	124.72	-1318.8	331.66	105.36	-1275.1	410.18	119.1	-1271.5	117.38	133.84	-1245.7	134.72	230.3	-1326.7	64.183	182.74	-1308.1	43.635	215.63	-1311.2	42.691	153.02	-1112.1	91.541	111.49	-1087.5	108.81	231.04	-1035.1	142	177.46	-1564.6	1585.8	340.95	-1659.2	1280.9	355.98
